# xmcd
#
# Track frame offsets:
#	150
#	17205
#	47412
#
# Disc length: 1101 seconds
#
# Revision: 1
# Processed by: cddbd v1.5.2PL0 Copyright (c) Steve Scherf et al.
# Submitted via: EasyCDDAExtractor 2011.0.0.0
#
DISCID=1a044b03
DTITLE=Luminaire - Flower Duet
DYEAR=1998
DGENRE=Dance
TTITLE0=Flower Duet (Bullet Park Radio Edit)
TTITLE1=Flower Duet (Way Out West Mix)
TTITLE2=Flower Duet (Jonathan Peters Original Mix)
EXTD=
EXTT0=
EXTT1=
EXTT2=
PLAYORDER=
